<?xml version="1.0" encoding="utf-8"?>
<!-- Generator: Adobe Illustrator 16.0.3, SVG Export Plug-In . SVG Version: 6.00 Build 0)  -->
<!DOCTYPE svg PUBLIC "-//W3C//DTD SVG 1.1//EN" "http://www.w3.org/Graphics/SVG/1.1/DTD/svg11.dtd">
<svg version="1.1" id="Layer_1" xmlns="http://www.w3.org/2000/svg" xmlns:xlink="http://www.w3.org/1999/xlink" x="0px" y="0px"
	 width="145px" height="86px" viewBox="0 0 145 86" enable-background="new 0 0 145 86" xml:space="preserve">
<g>
	<defs>
		<rect id="SVGID_1_" width="145" height="86"/>
	</defs>
	<clipPath id="SVGID_2_">
		<use xlink:href="#SVGID_1_"  overflow="visible"/>
	</clipPath>
	<path clip-path="url(#SVGID_2_)" fill="#1D52A2" d="M121.531,47.914c0,0-17.273-25.553-50.368-24.978
		C41.561,23.45,23.469,48.633,23.469,48.633s17.475,24.568,47.079,24.568C100.151,73.201,116.802,55.623,121.531,47.914"/>
	<path clip-path="url(#SVGID_2_)" fill="#FFFFFF" d="M119.978,48.024c0,0-16.661-24.38-48.687-23.901
		C42.646,24.551,25.09,48.508,25.09,48.508S41.949,71.95,70.594,72.012C99.239,72.072,115.387,55.359,119.978,48.024"/>
	<path clip-path="url(#SVGID_2_)" fill="#1D53A2" d="M101.609,39.521c-0.68-0.665-1.293,0.018-1.293,0.018l-3.371,3.437
		c-1.566-1.351-3.545-2.84-5.924-4.217l2.643-4.783c0,0,0.462-0.838-0.368-1.297c-0.832-0.459-1.24,0.363-1.24,0.363l-2.665,4.824
		c-2.059-1.062-4.378-2.017-6.945-2.732l1.368-5.375c0,0,0.236-0.927-0.684-1.162c-0.92-0.234-1.107,0.664-1.107,0.664l-1.381,5.422
		c-2.178-0.488-4.52-0.797-7.021-0.859v-5.405c0,0,0-0.958-0.949-0.958c-0.951,0-0.91,0.916-0.91,0.916v5.447
		c-2.714,0.068-5.216,0.439-7.515,1.015l-1.27-5.088c0,0-0.232-0.927-1.154-0.698c-0.922,0.23-0.659,1.109-0.659,1.109l1.293,5.177
		c-2.493,0.776-4.713,1.787-6.67,2.901l-2.654-4.348c0,0-0.498-0.818-1.308-0.322c-0.811,0.494-0.299,1.254-0.299,1.254l2.671,4.379
		c-2.523,1.621-4.526,3.367-6.015,4.864L44.93,40.43c0,0-0.637-0.713-1.345-0.08c-0.709,0.634-0.068,1.289-0.068,1.289l3.386,3.787
		c-1.309,1.471-1.961,2.475-1.961,2.475s10.04,12.344,28.714,12.344c18.673,0,27.679-12.738,27.679-12.738s-1.021-1.387-3.01-3.279
		l3.291-3.357C101.616,40.87,102.287,40.188,101.609,39.521"/>
	<path clip-path="url(#SVGID_2_)" fill="#F9AD26" d="M92.216,47.257c0,0-7.55-10.252-19.586-10.305
		c-11.79-0.053-19.685,11.011-19.685,11.011S59.018,58,72.685,57.881C84.934,57.775,90.632,49.041,92.216,47.257"/>
	<path clip-path="url(#SVGID_2_)" fill="#1D52A2" d="M90.527,47.217c0,0-7.327,10.373-19.289,9.416
		c-11.964-0.957-16.604-8.778-16.604-8.778s7.063-10.181,18.049-9.701C83.672,38.634,88.979,45.697,90.527,47.217"/>
	<path clip-path="url(#SVGID_2_)" fill="#FFFFFF" d="M81.22,47.115c0,4.556-3.867,8.247-8.64,8.247
		c-4.771,0-8.638-3.691-8.638-8.247c0-4.555,3.867-8.248,8.638-8.248C77.353,38.867,81.22,42.56,81.22,47.115"/>
	<path clip-path="url(#SVGID_2_)" fill="#1D52A2" d="M78.323,47.43c0,3.42-2.569,6.195-5.742,6.195c-3.172,0-5.74-2.775-5.74-6.195
		c0-3.422,2.568-6.195,5.74-6.195C75.754,41.235,78.323,44.008,78.323,47.43"/>
	<path clip-path="url(#SVGID_2_)" fill="#F9AD26" d="M76.077,47.43c0,2.08-1.564,3.77-3.496,3.77c-1.93,0-3.496-1.689-3.496-3.77
		c0-2.084,1.566-3.77,3.496-3.77C74.513,43.66,76.077,45.346,76.077,47.43"/>
	<path clip-path="url(#SVGID_2_)" fill="#1D52A2" d="M35.643,50.309c0.275,0.184,0.609,0.455,0.941,0.762
		c0.548,0.51,0.813,0.94,0.896,1.411c0.094,0.503-0.048,1.032-0.521,1.544c-0.517,0.555-1.074,0.75-1.573,0.725
		c-0.539-0.03-1.114-0.339-1.681-0.865c-0.338-0.314-0.56-0.562-0.703-0.733L35.643,50.309z M34.105,53.281
		c0.045,0.062,0.136,0.146,0.216,0.225c0.589,0.554,1.278,0.586,1.921-0.104c0.562-0.601,0.506-1.243-0.057-1.766
		c-0.147-0.137-0.253-0.211-0.32-0.251L34.105,53.281z"/>
	
		<rect x="37.308" y="55.11" transform="matrix(0.6741 -0.7386 0.7386 0.6741 -28.2356 47.1224)" clip-path="url(#SVGID_2_)" fill="#1D52A2" width="3.949" height="0.897"/>
	<path clip-path="url(#SVGID_2_)" fill="#1D52A2" d="M41.467,58.437c0.141,0.229,0.395,0.524,0.723,0.718
		c0.351,0.212,0.626,0.178,0.757-0.045c0.126-0.211,0.037-0.428-0.283-0.819c-0.448-0.53-0.629-1.062-0.335-1.554
		c0.346-0.58,1.092-0.737,1.894-0.258c0.382,0.228,0.616,0.477,0.764,0.686l-0.541,0.52c-0.097-0.149-0.282-0.387-0.612-0.584
		c-0.335-0.199-0.586-0.145-0.691,0.032c-0.129,0.215,0.005,0.425,0.345,0.854c0.467,0.577,0.563,1.058,0.278,1.537
		c-0.339,0.568-1.069,0.796-2,0.241c-0.388-0.231-0.706-0.564-0.834-0.785L41.467,58.437z"/>
	<path clip-path="url(#SVGID_2_)" fill="#1D52A2" d="M47.655,62.888c-0.18-0.028-0.534-0.171-0.924-0.45
		c-1.107-0.802-1.174-1.908-0.512-2.818c0.791-1.094,2.009-1.137,2.977-0.436c0.374,0.272,0.605,0.555,0.684,0.715l-0.562,0.469
		c-0.101-0.17-0.266-0.375-0.522-0.561c-0.576-0.416-1.271-0.393-1.787,0.32c-0.464,0.639-0.377,1.318,0.269,1.785
		c0.218,0.158,0.494,0.286,0.678,0.334L47.655,62.888z"/>
	<path clip-path="url(#SVGID_2_)" fill="#1D52A2" d="M55.32,62.875c0,1.295-0.785,2.08-1.94,2.08c-1.17,0-1.857-0.885-1.857-2.01
		c0-1.184,0.757-2.068,1.924-2.068C54.658,60.877,55.32,61.785,55.32,62.875 M52.467,62.927c0,0.775,0.363,1.321,0.962,1.321
		c0.603,0,0.947-0.575,0.947-1.342c0-0.709-0.339-1.319-0.955-1.319C52.819,61.587,52.467,62.159,52.467,62.927"/>
	<path clip-path="url(#SVGID_2_)" fill="#1D52A2" d="M58.338,66.251l0.163-4.145l0.917,0.335L59.3,64.176
		c-0.034,0.484-0.074,0.953-0.155,1.446l0.017,0.006c0.256-0.412,0.532-0.81,0.814-1.188l1.051-1.412l0.891,0.324l-2.6,3.256
		L58.338,66.251z"/>
	<polygon clip-path="url(#SVGID_2_)" fill="#1D52A2" points="66.505,66.193 65.057,66.072 64.978,67.006 66.594,67.141 
		66.532,67.873 64.023,67.66 64.356,63.725 66.787,63.932 66.725,64.66 65.188,64.529 65.118,65.348 66.566,65.471 	"/>
	<path clip-path="url(#SVGID_2_)" fill="#1D52A2" d="M69.95,64.332c0.287-0.047,0.716-0.084,1.19-0.084
		c0.586,0,0.997,0.089,1.277,0.313c0.233,0.186,0.362,0.463,0.362,0.825c0,0.505-0.355,0.851-0.697,0.974v0.018
		c0.275,0.111,0.43,0.375,0.528,0.738c0.122,0.445,0.247,0.962,0.323,1.113h-0.914c-0.065-0.119-0.159-0.436-0.276-0.92
		c-0.104-0.492-0.275-0.627-0.638-0.633h-0.27v1.553H69.95V64.332z M70.836,66.031h0.351c0.445,0,0.709-0.223,0.709-0.568
		c0-0.364-0.246-0.545-0.656-0.552c-0.217,0-0.34,0.017-0.404,0.029V66.031z"/>
	<path clip-path="url(#SVGID_2_)" fill="#1D52A2" d="M76.258,68.305v-1.618l-1.247-2.332h1.019l0.406,0.948
		c0.123,0.287,0.205,0.499,0.304,0.755h0.011c0.088-0.243,0.183-0.471,0.302-0.755l0.396-0.948h1.004l-1.3,2.305v1.646H76.258z"/>
	<path clip-path="url(#SVGID_2_)" fill="#1D52A2" d="M86.836,66.648c-0.149,0.106-0.5,0.256-0.976,0.328
		c-1.349,0.211-2.175-0.527-2.346-1.641c-0.208-1.33,0.627-2.219,1.808-2.402c0.457-0.07,0.821-0.031,0.989,0.024l-0.073,0.729
		c-0.188-0.048-0.448-0.079-0.761-0.03c-0.701,0.108-1.18,0.616-1.046,1.483c0.122,0.783,0.661,1.204,1.449,1.08
		c0.267-0.04,0.553-0.145,0.715-0.24L86.836,66.648z"/>
	<polygon clip-path="url(#SVGID_2_)" fill="#1D52A2" points="91.722,63.705 90.371,64.243 90.719,65.114 92.229,64.513 
		92.499,65.193 90.158,66.127 88.694,62.459 90.958,61.557 91.231,62.236 89.799,62.807 90.104,63.57 91.452,63.031 	"/>
	<path clip-path="url(#SVGID_2_)" fill="#1D52A2" d="M95.291,64.157l-1.315-3.722l0.981-0.348l1.258,1.088
		c0.358,0.314,0.745,0.699,1.057,1.063l0.02-0.007c-0.229-0.472-0.424-0.968-0.623-1.53l-0.385-1.084l0.774-0.273l1.318,3.723
		l-0.887,0.313l-1.303-1.154c-0.361-0.318-0.774-0.714-1.112-1.086l-0.013,0.012c0.196,0.484,0.392,1.004,0.609,1.61l0.394,1.124
		L95.291,64.157z"/>
	<polygon clip-path="url(#SVGID_2_)" fill="#1D52A2" points="100.248,57.686 99.33,58.215 98.955,57.566 101.584,56.049 
		101.959,56.697 101.023,57.236 102.628,60.007 101.851,60.455 	"/>
	<path clip-path="url(#SVGID_2_)" fill="#1D52A2" d="M104.058,54.584c0.198-0.211,0.519-0.498,0.896-0.784
		c0.466-0.356,0.847-0.536,1.204-0.528c0.298,0.007,0.57,0.148,0.79,0.438c0.306,0.402,0.23,0.895,0.032,1.197l0.013,0.014
		c0.285-0.078,0.567,0.039,0.866,0.269c0.368,0.28,0.779,0.614,0.931,0.691l-0.728,0.554c-0.124-0.054-0.388-0.249-0.775-0.566
		c-0.384-0.328-0.6-0.332-0.894-0.117l-0.212,0.164l0.938,1.236l-0.705,0.535L104.058,54.584z M105.79,55.4l0.279-0.212
		c0.354-0.271,0.429-0.606,0.218-0.882c-0.218-0.29-0.523-0.285-0.854-0.041c-0.173,0.129-0.26,0.219-0.303,0.268L105.79,55.4z"/>
	<polygon clip-path="url(#SVGID_2_)" fill="#1D52A2" points="111.423,51.256 110.427,52.314 111.11,52.957 112.222,51.776 
		112.754,52.276 111.028,54.113 108.151,51.407 109.82,49.631 110.353,50.133 109.299,51.256 109.896,51.817 110.893,50.76 	"/>
	<path clip-path="url(#SVGID_2_)" fill="#1D52A2" d="M35.897,24.437l1.259,1.368c0,0-2.207,0.75-2.006,1.516
		c0.199,0.767,1.077,0.618,2.316,0.674c1.241,0.054,2.372,0.693,2.317,1.807c-0.054,1.113-0.144,1.842-3.338,3.687l-1.151-1.408
		c0,0,1.9-0.582,2.283-1.258c0.382-0.676-0.092-0.91-1.06-0.948c-0.968-0.037-2.722,0.204-3.43-1.078
		C32.212,27.209,33.635,25.713,35.897,24.437"/>
	<path clip-path="url(#SVGID_2_)" fill="#1D52A2" d="M46.48,18.471l1.002,1.516c0,0-2.717,0.327-3.19,2.279
		c-0.477,1.952,1.312,3.504,2.955,2.7c1.642-0.802,1.951-1.476,1.951-1.476l0.457,1.897c0,0-4.386,3.754-6.934,0.201
		C40.039,21.846,43.926,19.092,46.48,18.471"/>
	<polygon clip-path="url(#SVGID_2_)" fill="#1D52A2" points="51.863,16.281 54.197,15.552 56.131,22.922 53.925,23.597 	"/>
	<polygon clip-path="url(#SVGID_2_)" fill="#1D52A2" points="59.069,18.143 59.196,19.583 62.098,18.963 61.97,17.45 	"/>
	<path clip-path="url(#SVGID_2_)" fill="#1D52A2" d="M83.098,13.417c0,0-4.451-0.803-5.509,3.121
		c-1.058,3.924,3.758,4.617,4.252,4.635c0.491,0.019,4.415,0.455,4.833-3.413C87.094,13.89,83.098,13.417,83.098,13.417
		 M84.32,17.486c-0.493,2.117-2.079,2.135-2.479,2.098c-0.402-0.039-2.393-0.657-1.935-2.737c0.454-2.08,2.736-1.86,2.736-1.86
		S84.813,15.369,84.32,17.486"/>
	<path clip-path="url(#SVGID_2_)" fill="#1D52A2" d="M109.354,24.252c0,0-3.679-2.635-6.318,0.455
		c-2.637,3.089,1.416,5.781,1.853,6.01c0.438,0.226,3.795,2.306,5.832-1.009C112.759,26.393,109.354,24.252,109.354,24.252
		 M108.714,28.451c-1.354,1.701-2.798,1.035-3.145,0.831c-0.347-0.206-1.876-1.618-0.573-3.302c1.305-1.683,3.271-0.508,3.271-0.508
		S110.064,26.751,108.714,28.451"/>
	<polygon clip-path="url(#SVGID_2_)" fill="#1D52A2" points="92.932,16.063 89.739,22.941 91.71,23.708 93.791,19.273 
		94.501,24.784 96.963,25.876 100.229,19.038 98.406,18.214 96.216,22.794 95.506,17.065 	"/>
	<path clip-path="url(#SVGID_2_)" fill="#1D52A2" d="M72.344,16.465c0,0,2.991-1.985-0.148-3.666l-5.417,0.389l0.27,7.699
		c0,0,5.104-0.422,5.741-0.759C73.424,19.794,75.171,17.746,72.344,16.465 M68.902,14.189c0,0,2.185-0.52,2.25,0.595
		c0.078,1.295-2.215,0.993-2.215,0.993L68.902,14.189z M69.152,19.182l-0.038-1.726c0,0,2.363-0.563,2.434,0.648
		C71.634,19.516,69.152,19.182,69.152,19.182"/>
</g>
</svg>
